<svg width="64px" height="64px" viewBox="0 0 64 64" xmlns="http://www.w3.org/2000/svg"><title>moon</title><g id="moon"><circle cx="39.5" cy="25.5" r="21.5" style="fill:#e5efef"/><line x1="4" y1="8" x2="8" y2="12" style="fill:none;stroke:#4c241d;stroke-linecap:round;stroke-linejoin:round;stroke-width:2px"/><line x1="8" y1="8" x2="4" y2="12" style="fill:none;stroke:#4c241d;stroke-linecap:round;stroke-linejoin:round;stroke-width:2px"/><line x1="55" y1="57" x2="59" y2="61" style="fill:none;stroke:#4c241d;stroke-linecap:round;stroke-linejoin:round;stroke-width:2px"/><line x1="59" y1="57" x2="55" y2="61" style="fill:none;stroke:#4c241d;stroke-linecap:round;stroke-linejoin:round;stroke-width:2px"/><path d="M48,41A23.014,23.014,0,0,1,26.382,10.131a26.017,26.017,0,0,0-22.7,19.938,4.976,4.976,0,0,1-.382,9.9A25.969,25.969,0,0,0,41.565,58.741a2.994,2.994,0,1,1,4.871-3.481,25.935,25.935,0,0,0,8.256-15.252A23,23,0,0,1,48,41Z" style="fill:#816982;stroke:#4c241d;stroke-linecap:round;stroke-linejoin:round;stroke-width:2px"/><circle cx="28" cy="52" r="5" style="fill:#e7d1c4"/><path d="M32.223,49.322a5,5,0,1,0-1.156,6.627" style="fill:none;stroke:#4c241d;stroke-linecap:round;stroke-linejoin:round;stroke-width:2px"/><path d="M32.735,53.612A5,5,0,0,0,33,52" style="fill:#b5a19c;stroke:#4c241d;stroke-linecap:round;stroke-linejoin:round;stroke-width:2px"/><circle cx="17" cy="26" r="3" style="fill:#e7d1c4"/><path d="M20,26a3,3,0,1,0-3,3" style="fill:none;stroke:#4c241d;stroke-linecap:round;stroke-linejoin:round;stroke-width:2px"/><circle cx="7" cy="60" r="1" style="fill:#4c241d"/><circle cx="15" cy="43" r="3" style="fill:#e7d1c4;stroke:#4c241d;stroke-linecap:round;stroke-linejoin:round;stroke-width:2px"/><path d="M33,25H49a0,0,0,0,1,0,0V44.459A1.541,1.541,0,0,1,47.459,46H34.541A1.541,1.541,0,0,1,33,44.459V25A0,0,0,0,1,33,25Z" style="fill:#ffce56;stroke:#4c241d;stroke-linecap:round;stroke-linejoin:round;stroke-width:2px"/><circle cx="41" cy="33" r="5" style="fill:#fff"/><line x1="41" y1="26" x2="41" y2="46" style="fill:none;stroke:#4c241d;stroke-linecap:round;stroke-linejoin:round;stroke-width:2px"/><line x1="33" y1="41" x2="49" y2="41" style="fill:none;stroke:#4c241d;stroke-linecap:round;stroke-linejoin:round;stroke-width:2px"/><path d="M50.145,25A7.852,7.852,0,0,0,52,20c0-4.971-11-9-11-9s-11,4.029-11,9a7.852,7.852,0,0,0,1.855,5Z" style="fill:#e66353;stroke:#4c241d;stroke-linecap:round;stroke-linejoin:round;stroke-width:2px"/><line x1="41" y1="11" x2="41" y2="1" style="fill:none;stroke:#4c241d;stroke-linecap:round;stroke-linejoin:round;stroke-width:2px"/></g></svg>