<svg xmlns="http://www.w3.org/2000/svg" width="64" height="64" viewBox="0 0 64 64"><title>open-quran</title><g id="open-quran"><circle cx="53.5" cy="10.5" r="2.5" style="fill:none;stroke:#4c241d;stroke-linecap:round;stroke-linejoin:round;stroke-width:2px"/><circle cx="23.5" cy="26.5" r="21.5" style="fill:#e5efef"/><line x1="13.837" x2="10.163" y1="5.663" y2="9.337" style="fill:none;stroke:#4c241d;stroke-linecap:round;stroke-linejoin:round;stroke-width:2px"/><line x1="10.163" x2="13.837" y1="5.663" y2="9.337" style="fill:none;stroke:#4c241d;stroke-linecap:round;stroke-linejoin:round;stroke-width:2px"/><circle cx="8" cy="13" r="1" style="fill:#4c241d"/><rect width="54" height="34" x="7" y="23" style="fill:#6b4f5b;stroke:#4c241d;stroke-linecap:round;stroke-linejoin:round;stroke-width:2px"/><path d="M34,55.685V22.8s7.76-7.893,21.987-5.262V50.423S43.053,49.107,34,55.685Z" style="fill:#fff;stroke:#4c241d;stroke-linecap:round;stroke-linejoin:round;stroke-width:2px"/><path d="M39,27.483A25.91,25.91,0,0,1,49.916,25" style="fill:#fff;stroke:#b5a19c;stroke-linecap:round;stroke-linejoin:round;stroke-width:2px"/><path d="M39,31.483A25.91,25.91,0,0,1,49.916,29" style="fill:#fff;stroke:#b5a19c;stroke-linecap:round;stroke-linejoin:round;stroke-width:2px"/><path d="M39,35.483A25.91,25.91,0,0,1,49.916,33" style="fill:#fff;stroke:#b5a19c;stroke-linecap:round;stroke-linejoin:round;stroke-width:2px"/><path d="M34,55.685V22.8s-7.765-7.893-22-5.262V50.423S24.941,49.107,34,55.685Z" style="fill:#fff;stroke:#4c241d;stroke-linecap:round;stroke-linejoin:round;stroke-width:2px"/><line x1="30" x2="27" y1="12" y2="9" style="fill:none;stroke:#ffce56;stroke-linecap:round;stroke-linejoin:round;stroke-width:2px"/><line x1="38" x2="41" y1="12" y2="9" style="fill:none;stroke:#ffce56;stroke-linecap:round;stroke-linejoin:round;stroke-width:2px"/><line x1="34" x2="34" y1="12" y2="8" style="fill:none;stroke:#ffce56;stroke-linecap:round;stroke-linejoin:round;stroke-width:2px"/><path d="M28.916,27.483A25.9,25.9,0,0,0,18,25" style="fill:#fff;stroke:#b5a19c;stroke-linecap:round;stroke-linejoin:round;stroke-width:2px"/><path d="M28.916,31.483A25.9,25.9,0,0,0,18,29" style="fill:#fff;stroke:#b5a19c;stroke-linecap:round;stroke-linejoin:round;stroke-width:2px"/><path d="M28.916,35.483A25.9,25.9,0,0,0,18,33" style="fill:#fff;stroke:#b5a19c;stroke-linecap:round;stroke-linejoin:round;stroke-width:2px"/></g></svg>