<?xml version="1.0" encoding="iso-8859-1"?>
<!-- Generator: Adobe Illustrator 19.0.0, SVG Export Plug-In . SVG Version: 6.00 Build 0)  -->
<svg version="1.1" id="Layer_1" xmlns="http://www.w3.org/2000/svg" xmlns:xlink="http://www.w3.org/1999/xlink" x="0px" y="0px"
	 viewBox="0 0 512 512" style="enable-background:new 0 0 512 512;" xml:space="preserve">
<rect x="86.032" y="327.858" style="fill:#CCCCCC;" width="349.78" height="184.142"/>
<g>
	<path style="fill:#E6E6E6;" d="M468.987,92.821c10.733,7.028,12.256,18.648,8.059,28.182h-2.842H412.97h-2.854
		c-4.185-9.534-2.662-21.154,8.059-28.182c21.838-14.283,25.412-28.182,25.412-28.182S447.161,78.538,468.987,92.821z"/>
	<path style="fill:#E6E6E6;" d="M93.819,92.821c10.733,7.028,12.256,18.648,8.059,28.182h-2.854H37.803h-2.854
		c-4.197-9.534-2.674-21.154,8.059-28.182c21.838-14.283,25.412-28.182,25.412-28.182S71.993,78.538,93.819,92.821z"/>
</g>
<g>
	<path style="fill:#CCCCCC;" d="M68.395,64.735c-0.192,1.211-2.422,14.475-13.491,28.086c-5.708,7.028-6.512,18.648-4.281,28.182
		H34.949c-4.197-9.534-2.674-21.154,8.059-28.182C63.826,79.209,68.047,65.946,68.395,64.735z"/>
	<path style="fill:#CCCCCC;" d="M68.419,64.663c-0.012,0.012-0.012,0.036-0.024,0.072c0.012-0.06,0.012-0.096,0.012-0.096
		S68.407,64.651,68.419,64.663z"/>
</g>
<g>
	<path style="fill:#F7B239;" d="M289.809,77.183c13.431,0,25.436-6.068,33.459-15.59c-3.13,27.75-26.683,49.324-55.273,49.324
		c-30.736,0-55.644-24.908-55.644-55.632c0-28.602,21.574-52.143,49.336-55.285c-9.534,8.023-15.59,20.039-15.59,33.459
		C246.097,57.611,265.669,77.183,289.809,77.183z"/>
	<path style="fill:#F7B239;" d="M451.215,52.788c4.718,0,8.935-2.131,11.754-5.477c-1.1,9.749-9.373,17.326-19.417,17.326
		c-10.797,0-19.546-8.75-19.546-19.543c0-10.047,7.579-18.317,17.331-19.42c-3.349,2.818-5.477,7.039-5.477,11.754
		C435.86,45.914,442.735,52.788,451.215,52.788z"/>
	<path style="fill:#F7B239;" d="M76.081,52.788c4.718,0,8.935-2.131,11.754-5.477c-1.1,9.749-9.373,17.328-19.416,17.328
		c-10.797,0-19.546-8.75-19.546-19.543c0-10.047,7.579-18.317,17.331-19.42c-3.349,2.818-5.477,7.039-5.477,11.754
		C60.726,45.914,67.601,52.788,76.081,52.788z"/>
</g>
<path style="fill:#999999;" d="M305.184,422.609V512h-95.855v-89.391c0-25.16,20.411-45.571,45.571-45.571h4.713
	C284.785,377.038,305.184,397.449,305.184,422.609z"/>
<g>
	<polygon style="fill:#E6E6E6;" points="474.203,121.002 474.203,512 412.97,512 412.97,327.858 412.97,121.002 	"/>
	<polygon style="fill:#E6E6E6;" points="99.024,327.858 99.024,512 37.803,512 37.803,121.002 99.024,121.002 	"/>
</g>
<g>
	<polygon style="fill:#CCCCCC;" points="60.648,327.858 60.648,512 37.803,512 37.803,121.002 60.648,121.002 	"/>
	<polygon style="fill:#CCCCCC;" points="435.816,327.858 435.816,512 412.97,512 412.97,121.002 435.816,121.002 	"/>
</g>
<path style="fill:#F2F2F2;" d="M362.519,327.858V512h-57.335v-89.391c0-25.16-20.399-45.571-45.571-45.571H254.9
	c-25.16,0-45.571,20.411-45.571,45.571V512h-59.854V327.858V290.01h0.192l109.534-77.659l103.138,77.659h0.18V327.858z"/>
<g>
	<rect x="149.472" y="290.01" style="fill:#E6E6E6;" width="32.175" height="221.99"/>
	<path style="fill:#E6E6E6;" d="M336.723,200.464c34.094,22.318,38.927,59.254,25.616,89.547H149.667
		c-13.323-30.293-8.479-67.229,25.616-89.547c69.364-45.403,80.72-89.547,80.72-89.547S267.348,155.061,336.723,200.464z"/>
</g>
<path style="fill:#CCCCCC;" d="M208.635,200.464c40.599-45.288,47.331-89.313,47.365-89.536
	c-0.116,0.444-11.706,44.363-80.718,89.536c-34.094,22.318-38.939,59.254-25.616,89.547h43.936
	C185.786,259.718,188.628,222.781,208.635,200.464z"/>
<g>
	<path style="fill:#808080;" d="M443.586,234.69c-4.967,0-8.994-4.027-8.994-8.994v-29.009c0-4.967,4.027-8.994,8.994-8.994
		c4.967,0,8.994,4.027,8.994,8.994v29.009C452.58,230.663,448.554,234.69,443.586,234.69z"/>
	<path style="fill:#808080;" d="M443.586,343.16c-4.967,0-8.994-4.027-8.994-8.994v-29.009c0-4.967,4.027-8.994,8.994-8.994
		c4.967,0,8.994,4.027,8.994,8.994v29.009C452.58,339.133,448.554,343.16,443.586,343.16z"/>
</g>
<g>
	<path style="fill:#CCCCCC;" d="M101.878,129.997H34.949c-4.967,0-8.994-4.027-8.994-8.994c0-4.967,4.027-8.994,8.994-8.994h66.929
		c4.967,0,8.994,4.027,8.994,8.994C110.872,125.97,106.845,129.997,101.878,129.997z"/>
	<path style="fill:#CCCCCC;" d="M477.051,129.997h-66.929c-4.967,0-8.994-4.027-8.994-8.994c0-4.967,4.027-8.994,8.994-8.994h66.929
		c4.967,0,8.994,4.027,8.994,8.994C486.046,125.97,482.019,129.997,477.051,129.997z"/>
</g>
<g>
	<path style="fill:#808080;" d="M68.419,234.69c-4.967,0-8.994-4.027-8.994-8.994v-29.009c0-4.967,4.027-8.994,8.994-8.994
		s8.994,4.027,8.994,8.994v29.009C77.413,230.663,73.386,234.69,68.419,234.69z"/>
	<path style="fill:#808080;" d="M68.419,343.16c-4.967,0-8.994-4.027-8.994-8.994v-29.009c0-4.967,4.027-8.994,8.994-8.994
		s8.994,4.027,8.994,8.994v29.009C77.413,339.133,73.386,343.16,68.419,343.16z"/>
</g>
<g>
</g>
<g>
</g>
<g>
</g>
<g>
</g>
<g>
</g>
<g>
</g>
<g>
</g>
<g>
</g>
<g>
</g>
<g>
</g>
<g>
</g>
<g>
</g>
<g>
</g>
<g>
</g>
<g>
</g>
</svg>
