<svg width="64px" height="64px" viewBox="0 0 64 64" xmlns="http://www.w3.org/2000/svg"><title>pray-down</title><g id="pray-down"><circle cx="31.5" cy="24.5" r="21.5" style="fill:#e5efef"/><polygon points="8 38 56 38 63 59 1 59 8 38" style="fill:#f96e43;stroke:#4c241d;stroke-linecap:round;stroke-linejoin:round;stroke-width:2px"/><path d="M38,38m0,0-5.277-2.072C30.11,33.426,22,32,17.843,35.236l5.716,5.981a2.191,2.191,0,0,0,1.6.758c1.123-.033,3.081,1.016,4.507,1.888a17.786,17.786,0,0,0,4.2,1.87L40,48" style="fill:#6b4f5b;stroke:#4c241d;stroke-linecap:round;stroke-linejoin:round;stroke-width:2px"/><path d="M27.208,41.872h-.08A4.584,4.584,0,0,1,24.1,40.731l-6.257-5.5a22.013,22.013,0,0,0-2.44,2.839,4.738,4.738,0,0,0-.361,5.377A7.149,7.149,0,0,0,21,47l-5,1L7,50,3,53l24.447-.021a5.554,5.554,0,0,0,5.527-6.1A5.715,5.715,0,0,0,27.208,41.872Z" style="fill:#6b4f5b;stroke:#4c241d;stroke-linecap:round;stroke-linejoin:round;stroke-width:2px"/><line x1="14" y1="19" x2="14" y2="22" style="fill:none;stroke:#4c241d;stroke-linecap:round;stroke-linejoin:round;stroke-width:2px"/><line x1="14" y1="26" x2="14" y2="29" style="fill:none;stroke:#4c241d;stroke-linecap:round;stroke-linejoin:round;stroke-width:2px"/><line x1="12" y1="24" x2="9" y2="24" style="fill:none;stroke:#4c241d;stroke-linecap:round;stroke-linejoin:round;stroke-width:2px"/><line x1="19" y1="24" x2="16" y2="24" style="fill:none;stroke:#4c241d;stroke-linecap:round;stroke-linejoin:round;stroke-width:2px"/><circle cx="55.5" cy="6.5" r="2.5" style="fill:none;stroke:#4c241d;stroke-linecap:round;stroke-linejoin:round;stroke-width:2px"/><path d="M37,50.758A1.242,1.242,0,0,0,38.242,52h7.622C48.148,52,50,49.761,50,47h0c0-2.762-1.852-5-4.136-5H40.938C38.763,42,37,44.131,37,46.76Z" style="fill:#e7d1c4;stroke:#4c241d;stroke-linecap:round;stroke-linejoin:round;stroke-width:2px"/><circle cx="32" cy="12" r="1" style="fill:#4c241d"/><circle cx="45" cy="23" r="1" style="fill:#4c241d"/><circle cx="29" cy="23" r="1" style="fill:#4c241d"/><path d="M46,42h3.466A2.534,2.534,0,0,1,52,44.534V52a0,0,0,0,1,0,0H46a0,0,0,0,1,0,0V42A0,0,0,0,1,46,42Z" style="fill:#6b4f5b;stroke:#4c241d;stroke-linecap:round;stroke-linejoin:round;stroke-width:2px"/><polyline points="36 42 52.631 51.461 55.492 49.135 38 38" style="fill:#6b4f5b;stroke:#4c241d;stroke-linecap:round;stroke-linejoin:round;stroke-width:2px"/><path d="M55,53H60a.709.709,0,0,0,.317-1.344L55,49l-2.369,2.461Z" style="fill:#e7d1c4;stroke:#4c241d;stroke-linecap:round;stroke-linejoin:round;stroke-width:2px"/><line x1="24" y1="47" x2="26" y2="47" style="fill:none;stroke:#4c241d;stroke-linecap:round;stroke-linejoin:round;stroke-width:2px"/></g></svg>